<svg width="63" height="58" viewBox="0 0 63 58" fill="none" xmlns="http://www.w3.org/2000/svg">
<g clip-path="url(#clip0_6_8)">
<path d="M21.571 9.94002V14.4582H41.181V9.94002C41.181 9.44302 40.7398 9.03638 40.2005 9.03638H22.5515C22.0122 9.03638 21.571 9.44302 21.571 9.94002ZM15.688 14.4582V9.94002C15.688 6.44971 18.7643 3.61455 22.5515 3.61455H40.2005C43.9877 3.61455 47.064 6.44971 47.064 9.94002V14.4582H50.508C52.0645 14.4582 53.5598 15.0343 54.6629 16.0509L61.0239 21.9132C62.1269 22.9298 62.752 24.3079 62.752 25.7424V34.3383H47.064V32.531C47.064 30.5317 45.3114 28.9164 43.142 28.9164C40.9726 28.9164 39.22 30.5317 39.22 32.531V34.3383H23.532V32.531C23.532 30.5317 21.7794 28.9164 19.61 28.9164C17.4406 28.9164 15.688 30.5317 15.688 32.531V34.3383H0V25.7424C0 24.3079 0.625069 22.9298 1.72813 21.9132L8.08912 16.0509C9.19219 15.0343 10.6874 14.4582 12.244 14.4582H15.688ZM0 46.9892V37.9528H15.688V39.7601C15.688 41.7594 17.4406 43.3747 19.61 43.3747C21.7794 43.3747 23.532 41.7594 23.532 39.7601V37.9528H39.22V39.7601C39.22 41.7594 40.9726 43.3747 43.142 43.3747C45.3114 43.3747 47.064 41.7594 47.064 39.7601V37.9528H62.752V46.9892C62.752 50.9765 59.2345 54.2183 54.908 54.2183H7.844C3.51754 54.2183 0 50.9765 0 46.9892Z" fill="url(#paint0_linear_6_8)"/>
</g>
<defs>
<linearGradient id="paint0_linear_6_8" x1="33.5" y1="23" x2="34.5" y2="51" gradientUnits="userSpaceOnUse">
<stop stop-color="#F84848"/>
<stop offset="1" stop-color="#2864BE"/>
</linearGradient>
<clipPath id="clip0_6_8">
<rect width="62.752" height="57.8329" fill="white"/>
</clipPath>
</defs>
</svg>
